<?xml version="1.0" encoding="UTF-8" standalone="no"?>
<!DOCTYPE svg PUBLIC "-//W3C//DTD SVG 1.1//EN" "http://www.w3.org/Graphics/SVG/1.1/DTD/svg11.dtd">
<svg width="100%" height="100%" viewBox="0 0 2635 477" version="1.1" xmlns="http://www.w3.org/2000/svg" xmlns:xlink="http://www.w3.org/1999/xlink" xml:space="preserve" xmlns:serif="http://www.serif.com/" style="fill-rule:evenodd;clip-rule:evenodd;stroke-linejoin:round;stroke-miterlimit:2;">
    <g transform="matrix(1,0,0,1,-2737,-7120)">
        <g id="Logo-Horizontal" serif:id="Logo Horizontal" transform="matrix(1.02614,0,0,1,2706.26,-0.47113)">
            <rect x="30" y="7120.47" width="2567.79" height="476.57" style="fill:none;"/>
            <clipPath id="_clip1">
                <rect x="30" y="7120.47" width="2567.79" height="476.57"/>
            </clipPath>
            <g clip-path="url(#_clip1)">
                <g transform="matrix(2.46241,0,0,2.52677,-863.531,5648.24)">
                    <g transform="matrix(0.502805,0,0,0.502805,340.519,475.908)">
                        <path d="M647.688,360.595L647.688,359.972C647.688,315.433 616.23,284.598 564.216,284.598L475.137,284.598L475.137,502.622L523.103,502.622L523.103,437.214L559.544,437.214C608.443,437.214 647.688,411.052 647.688,360.595ZM599.099,361.529C599.099,380.217 585.084,394.544 561.101,394.544L523.103,394.544L523.103,327.891L560.167,327.891C584.149,327.891 599.099,339.415 599.099,360.906L599.099,361.529Z" style="fill:rgb(38,61,129);fill-rule:nonzero;"/>
                        <path d="M778.813,382.086L778.813,332.563C750.782,331.317 735.209,346.267 725.553,369.316L725.553,335.678L678.211,335.678L678.211,502.622L725.553,502.622L725.553,440.952C725.553,401.085 744.864,382.086 776.322,382.086L778.813,382.086Z" style="fill:rgb(38,61,129);fill-rule:nonzero;"/>
                        <path d="M959.462,423.822L959.462,423.199C959.462,375.856 933.922,332.563 878.17,332.563C829.582,332.563 795.632,371.807 795.632,419.461L795.632,420.084C795.632,471.164 832.696,506.359 882.842,506.359C913.054,506.359 935.479,494.524 951.052,475.213L923.955,451.23C910.873,463.377 899.349,468.361 883.465,468.361C862.285,468.361 847.335,457.148 842.663,435.657L958.839,435.657C959.15,431.297 959.462,428.494 959.462,423.822ZM913.365,406.068L842.04,406.068C845.778,384.577 858.548,370.561 878.17,370.561C898.103,370.561 910.562,384.889 913.365,406.068Z" style="fill:rgb(38,61,129);fill-rule:nonzero;"/>
                        <path d="M1117.06,451.853L1117.06,451.23C1117.06,420.707 1089.96,409.494 1066.61,401.708C1048.54,395.478 1032.65,391.118 1032.65,381.774L1032.65,381.151C1032.65,374.61 1038.57,369.627 1050.1,369.627C1062.24,369.627 1078.75,375.545 1095.26,385.2L1113.32,352.497C1095.26,340.35 1072.21,333.186 1051.03,333.186C1017.39,333.186 989.985,352.185 989.985,386.135L989.985,386.758C989.985,419.15 1016.46,430.051 1039.82,436.903C1058.19,442.509 1074.39,445.935 1074.39,456.214L1074.39,456.837C1074.39,464.312 1068.16,469.295 1054.46,469.295C1038.88,469.295 1019.88,462.443 1001.82,449.361L981.575,480.508C1003.69,497.95 1029.85,505.736 1053.21,505.736C1089.34,505.736 1117.06,488.917 1117.06,451.853Z" style="fill:rgb(38,61,129);fill-rule:nonzero;"/>
                        <path d="M1305.18,335.678L1255.97,335.678L1219.53,449.361L1181.53,335.678L1131.39,335.678L1196.8,503.245C1192.75,511.654 1188.39,514.146 1180.29,514.146C1174.06,514.146 1166.27,511.343 1160.04,507.605L1144.16,541.866C1156.31,549.03 1169.08,553.39 1186.21,553.39C1214.55,553.39 1228.25,540.62 1241.02,506.671L1305.18,335.678Z" style="fill:rgb(38,61,129);fill-rule:nonzero;"/>
                        <path d="M1496.42,419.461L1496.42,418.838C1496.42,370.873 1458.11,332.563 1406.41,332.563C1354.4,332.563 1315.78,371.496 1315.78,419.461L1315.78,420.084C1315.78,468.049 1354.09,506.359 1405.79,506.359C1457.8,506.359 1496.42,467.426 1496.42,419.461ZM1449.7,420.084C1449.7,444.69 1433.51,465.558 1406.41,465.558C1380.25,465.558 1362.49,444.067 1362.49,419.461L1362.49,418.838C1362.49,394.233 1378.69,373.365 1405.79,373.365C1431.95,373.365 1449.7,394.856 1449.7,419.461L1449.7,420.084Z" style="fill:rgb(38,61,129);fill-rule:nonzero;"/>
                        <path d="M1624.43,495.769L1624.43,457.771C1617.58,461.509 1609.8,463.689 1601.07,463.689C1590.49,463.689 1585.81,458.394 1585.81,447.493L1585.81,376.168L1625.06,376.168L1625.06,335.678L1585.81,335.678L1585.81,293.007L1538.47,293.007L1538.47,335.678L1518.54,335.678L1518.54,376.168L1538.47,376.168L1538.47,455.279C1538.47,493.901 1558.09,505.425 1587.06,505.425C1602.94,505.425 1614.47,501.687 1624.43,495.769Z" style="fill:rgb(237,28,36);fill-rule:nonzero;"/>
                        <path d="M1811,423.822L1811,423.199C1811,375.856 1785.46,332.563 1729.71,332.563C1681.12,332.563 1647.17,371.807 1647.17,419.461L1647.17,420.084C1647.17,471.164 1684.24,506.359 1734.38,506.359C1764.59,506.359 1787.02,494.524 1802.59,475.213L1775.49,451.23C1762.41,463.377 1750.89,468.361 1735,468.361C1713.82,468.361 1698.87,457.148 1694.2,435.657L1810.38,435.657C1810.69,431.297 1811,428.494 1811,423.822ZM1764.9,406.068L1693.58,406.068C1697.32,384.577 1710.09,370.561 1729.71,370.561C1749.64,370.561 1762.1,384.889 1764.9,406.068Z" style="fill:rgb(237,28,36);fill-rule:nonzero;"/>
                        <path d="M1993.21,475.836L1965.49,447.804C1953.96,458.705 1943.06,465.558 1927.18,465.558C1901.32,465.558 1884.82,445.001 1884.82,419.461L1884.82,418.838C1884.82,394.233 1901.64,373.365 1925.31,373.365C1942.13,373.365 1952.72,380.528 1963.31,391.741L1992.27,360.595C1976.7,343.153 1957.08,332.563 1925.62,332.563C1874.54,332.563 1838.1,371.807 1838.1,419.461L1838.1,420.084C1838.1,467.738 1874.85,506.359 1925,506.359C1958.32,506.359 1977.01,493.589 1993.21,475.836Z" style="fill:rgb(237,28,36);fill-rule:nonzero;"/>
                        <path d="M2117.79,495.769L2117.79,457.771C2110.94,461.509 2103.15,463.689 2094.43,463.689C2083.84,463.689 2079.17,458.394 2079.17,447.493L2079.17,376.168L2118.41,376.168L2118.41,335.678L2079.17,335.678L2079.17,293.007L2031.83,293.007L2031.83,335.678L2011.89,335.678L2011.89,376.168L2031.83,376.168L2031.83,455.279C2031.83,493.901 2051.45,505.425 2080.41,505.425C2096.3,505.425 2107.82,501.687 2117.79,495.769Z" style="fill:rgb(237,28,36);fill-rule:nonzero;"/>
                    </g>
                    <g transform="matrix(1,0,0,1,-494.702,-221.84)">
                        <path d="M946.988,804.679C996.338,804.679 1036.4,813.305 1036.4,862.655C1036.4,959.376 946.988,993.287 946.988,993.287C946.988,993.287 857.572,957.179 857.572,862.655C857.572,813.305 897.638,804.679 946.988,804.679Z" style="fill:rgb(237,28,36);"/>
                        <g transform="matrix(1,0,0,1,0,-13.2637)">
                            <circle cx="946.988" cy="875.29" r="29.445" style="fill:rgb(255,242,0);"/>
                        </g>
                        <path d="M946.988,872.826C946.988,872.826 1036.4,813.305 1036.4,862.655C1036.4,959.376 946.988,993.287 946.988,993.287C946.988,993.287 857.572,957.179 857.572,862.655C857.572,813.305 946.988,872.826 946.988,872.826Z" style="fill:white;"/>
                        <path d="M946.988,917.005C946.988,917.005 1036.4,813.305 1036.4,862.655C1036.4,959.376 946.988,993.287 946.988,993.287C946.988,993.287 857.572,957.179 857.572,862.655C857.572,813.305 946.988,917.005 946.988,917.005Z" style="fill:rgb(25,47,111);"/>
                        <path d="M946.988,941.029C946.988,941.029 1036.4,813.305 1036.4,862.655C1036.4,959.376 946.988,993.287 946.988,993.287C946.988,993.287 857.572,957.179 857.572,862.655C857.572,813.305 946.988,941.029 946.988,941.029Z" style="fill:rgb(38,61,129);"/>
                        <g transform="matrix(0.780323,0,0,0.780323,64.4387,192.768)">
                            <path d="M1131,895.402L1162.76,958.911L1099.25,958.911L1131,895.402Z" style="fill:white;"/>
                        </g>
                    </g>
                </g>
            </g>
        </g>
    </g>
</svg>
